<svg width="2500" height="2500" viewBox="0 0 2500 2500" fill="none" xmlns="http://www.w3.org/2000/svg">
<path d="M1250 2500C1946.9 2500 2500 1935.84 2500 1250C2500 553.097 1935.84 0 1250 0C553.096 0 0 564.159 0 1250C0 1935.84 564.159 2500 1250 2500Z" fill="#2C374B"/>
<path fill-rule="evenodd" clip-rule="evenodd" d="M1935.82 797.483C1924.75 786.426 1382.74 465.753 1316.37 443.638C1294.25 432.58 1238.94 421.523 1205.75 432.58C1172.57 443.638 597.369 775.368 575.246 797.483C564.185 808.541 553.123 830.656 542.062 841.714C531 863.829 531 874.887 531 1261.91V1659.98L608.432 1704.21C652.678 1726.33 685.862 1748.44 685.862 1748.44C696.923 1748.44 1216.81 919.118 1216.81 908.06C1216.81 897.002 1095.14 897.002 1061.96 908.06C1017.71 919.118 984.524 941.233 962.401 963.348C951.339 974.406 884.97 1084.98 796.477 1206.62C719.046 1328.25 652.677 1438.83 652.677 1438.83C652.677 1438.83 652.677 1328.25 652.677 1173.44V897.002L663.74 885.945C685.863 863.829 1250 543.157 1272.12 543.157C1283.18 543.157 1294.25 543.157 1426.98 620.561C1471.23 642.676 1592.91 709.022 1692.46 775.368C1792.02 830.656 1880.51 885.945 1891.57 897.002L1902.63 908.06V1483.06L1626.09 1051.81C1615.03 1029.69 1603.97 1007.58 1592.91 996.521C1592.91 996.521 1581.85 1018.64 1515.48 1129.21C1504.41 1140.27 1493.35 1162.39 1493.35 1173.44L1482.29 1195.56L1493.35 1206.62L1504.41 1217.67C1504.41 1217.67 1504.41 1228.73 1515.48 1228.73L1537.6 1261.91C1537.6 1261.91 1537.6 1272.96 1548.66 1272.96C1559.72 1284.02 1570.78 1306.14 1570.78 1317.19C1570.78 1317.19 1570.78 1317.19 1570.78 1328.25L1803.08 1704.21L1780.95 1715.27C1769.89 1726.33 1758.83 1726.33 1747.77 1726.33L1460.17 1284.02L1449.11 1272.96L1426.98 1317.19L1316.37 1494.12L1537.6 1847.96C1504.41 1870.08 1316.37 2002.77 1305.31 2002.77C1294.25 2002.77 1039.83 1836.9 1050.89 1825.85C1050.89 1825.85 1128.32 1693.15 1216.81 1538.35C1294.25 1405.66 1393.8 1239.79 1460.17 1129.21C1537.6 996.521 1570.78 930.175 1570.78 930.175C1570.78 930.175 1515.48 930.175 1449.11 930.175H1338.49L1084.08 1350.37C995.585 1505.17 907.093 1648.92 862.847 1726.33C785.416 1737.39 763.293 1759.5 763.293 1759.5L752.231 1781.62L951.34 1892.19C1061.96 1958.54 1161.51 2013.83 1183.63 2024.88C1216.81 2047 1272.12 2047 1294.25 2047C1316.37 2035.94 1891.57 1704.21 1924.75 1682.1C1935.82 1671.04 1946.88 1659.98 1957.94 1637.87L1969 1604.69V1239.79V874.887L1957.94 852.772C1957.94 830.656 1935.82 808.541 1935.82 797.483Z" fill="white"/>
<path d="M1878.93 1470.12L1546.79 962L1425 1160.83L1746.07 1680L1890 1613.72L1878.93 1470.12Z" fill="#24A2EE"/>
<path d="M1727 1748.38L1394.21 1240L1250 1461.03L1516.23 1881L1682.63 1814.69L1727 1748.38Z" fill="#24A2EE"/>
<path fill-rule="evenodd" clip-rule="evenodd" d="M640.827 896.931L1249.96 542.924L1859.1 896.931V1604.94L1249.96 1958.95L795.879 1704.51L740.504 1804.07L1238.89 2091.7C1249.96 2102.77 1261.04 2102.77 1272.11 2091.7L1969.85 1693.45C1980.92 1682.38 1992 1671.32 1992 1660.26V863.743C1992 852.68 1980.92 841.617 1969.85 830.554L1272.11 432.297C1261.04 421.234 1249.96 421.234 1238.89 432.297L541.15 819.492C530.075 830.554 519 841.617 519 852.68V1649.19C519 1660.26 530.075 1671.32 541.15 1682.38L685.128 1759.82L751.579 1660.26L651.902 1604.94V896.931H640.827Z" fill="#98BCDC"/>
<path d="M1516 898H1284.1L743 1782.44L930.728 1893L1516 898Z" fill="white"/>
<path d="M930.177 983.574C985.741 894.954 1141.32 894.954 1208 906.031L674.58 1759C652.355 1747.92 607.903 1725.77 574.564 1703.61C530.113 1681.46 519 1681.46 519 1648.22V1603.91C641.242 1426.67 874.612 1072.19 930.177 983.574Z" fill="white"/>
</svg>
