<svg width="2500" height="2500" viewBox="0 0 2500 2500" fill="none" xmlns="http://www.w3.org/2000/svg">
<path d="M2500 1249.8C2500 1940.11 1940.59 2500 1250 2500C559.407 2500 0 1940.5 0 1249.8C0 559.102 559.801 0 1250 0C1940.2 0 2500 559.496 2500 1249.8Z" fill="#321D47"/>
<path d="M1739.28 1537.83H1472.98L1422.94 1415.68H1084.94L1034.9 1537.83H768.594L1087.3 811.663H1420.19L1739.28 1537.83ZM1254.33 1000.39L1166.09 1217.1H1342.18L1254.33 1000.39Z" fill="white"/>
<path d="M1253.94 657.604C1355.98 657.604 1438.7 574.871 1438.7 472.813C1438.7 370.756 1355.98 288.022 1253.94 288.022C1151.9 288.022 1069.18 370.756 1069.18 472.813C1069.18 574.871 1151.9 657.604 1253.94 657.604Z" fill="#E6007A"/>
<path d="M1253.94 2213.95C1355.98 2213.95 1438.7 2131.21 1438.7 2029.16C1438.7 1927.1 1355.98 1844.37 1253.94 1844.37C1151.9 1844.37 1069.18 1927.1 1069.18 2029.16C1069.18 2131.21 1151.9 2213.95 1253.94 2213.95Z" fill="#E6007A"/>
<path d="M571.62 1027.58C673.661 1027.58 756.382 944.847 756.382 842.79C756.382 740.732 673.661 657.998 571.62 657.998C469.579 657.998 386.858 740.732 386.858 842.79C386.858 944.847 469.579 1027.58 571.62 1027.58Z" fill="#E6007A"/>
<path d="M1936.65 1027.58C2038.69 1027.58 2121.42 944.847 2121.42 842.79C2121.42 740.732 2038.69 657.998 1936.65 657.998C1834.61 657.998 1751.89 740.732 1751.89 842.79C1751.89 944.847 1834.61 1027.58 1936.65 1027.58Z" fill="#E6007A"/>
<path d="M571.62 1850.28C673.661 1850.28 756.382 1767.54 756.382 1665.48C756.382 1563.43 673.661 1480.69 571.62 1480.69C469.579 1480.69 386.858 1563.43 386.858 1665.48C386.858 1767.54 469.579 1850.28 571.62 1850.28Z" fill="#E6007A"/>
<path d="M1936.65 1850.28C2038.69 1850.28 2121.42 1767.54 2121.42 1665.48C2121.42 1563.43 2038.69 1480.69 1936.65 1480.69C1834.61 1480.69 1751.89 1563.43 1751.89 1665.48C1751.89 1767.54 1834.61 1850.28 1936.65 1850.28Z" fill="#E6007A"/>
</svg>
