<svg width="2500" height="2500" viewBox="0 0 2500 2500" fill="none" xmlns="http://www.w3.org/2000/svg">
<path d="M2021 428H477V1832H2021V428Z" fill="white"/>
<path fill-rule="evenodd" clip-rule="evenodd" d="M2500 1250C2500 1940.36 1940.36 2500 1250 2500C559.644 2500 0 1940.36 0 1250C0 559.644 559.644 0 1250 0C1940.36 0 2500 559.644 2500 1250ZM895.786 1747.44H653.196C602.22 1747.44 577.041 1747.44 561.688 1737.62C545.105 1726.86 534.972 1709.05 533.743 1689.4C532.821 1671.29 545.413 1649.17 570.593 1604.95L1169.58 549.159C1195.06 504.326 1207.96 481.909 1224.24 473.618C1241.74 464.714 1262.62 464.714 1280.12 473.618C1296.4 481.909 1309.3 504.326 1334.78 549.159L1457.92 764.113L1458.55 765.21C1486.08 813.307 1500.04 837.698 1506.13 863.297C1512.89 891.242 1512.89 920.721 1506.13 948.665C1499.99 974.459 1486.17 999.026 1458.23 1047.85L1143.6 1604.03L1142.78 1605.46C1115.07 1653.95 1101.03 1678.53 1081.57 1697.07C1060.38 1717.34 1034.89 1732.07 1006.95 1740.38C981.46 1747.44 952.903 1747.44 895.786 1747.44ZM1508.41 1747.44H1856.01C1907.29 1747.44 1933.09 1747.44 1948.45 1737.32C1965.03 1726.56 1975.47 1708.44 1976.4 1688.8C1977.28 1671.27 1964.96 1650.02 1940.83 1608.37C1940 1606.95 1939.16 1605.51 1938.32 1604.04L1764.2 1306.18L1762.22 1302.82C1737.75 1261.45 1725.4 1240.55 1709.54 1232.48C1692.04 1223.57 1671.45 1223.57 1653.96 1232.48C1637.99 1240.77 1625.09 1262.57 1599.61 1306.48L1426.11 1604.35L1425.51 1605.37C1400.12 1649.21 1387.42 1671.12 1388.34 1689.1C1389.57 1708.76 1399.7 1726.86 1416.28 1737.62C1431.33 1747.44 1457.12 1747.44 1508.41 1747.44Z" fill="#E84142"/>
</svg>
