<svg width="2500" height="2507" viewBox="0 0 2500 2507" fill="none" xmlns="http://www.w3.org/2000/svg">
<g clip-path="url(#clip0_5_47)">
<path fill-rule="evenodd" clip-rule="evenodd" d="M1250 0C1940.4 0 2500 561.162 2500 1253.5C2500 1945.84 1940.4 2507 1250 2507C559.595 2507 0 1945.84 0 1253.5C0 561.162 559.595 0 1250 0Z" fill="#F0B90B"/>
<path d="M686.999 1253.5L687.901 1584.95L968.75 1750.68V1944.73L523.538 1682.88V1156.57L686.999 1253.5ZM686.999 922.046V1115.19L523.438 1018.17V825.02L686.999 727.994L851.362 825.02L686.999 922.046ZM1086.04 825.02L1249.6 727.994L1413.96 825.02L1249.6 922.046L1086.04 825.02Z" fill="white"/>
<path d="M805.188 1516.25V1322.2L968.75 1419.23V1612.37L805.188 1516.25ZM1086.04 1820.19L1249.6 1917.21L1413.96 1820.19V2013.33L1249.6 2110.36L1086.04 2013.33V1820.19ZM1648.54 825.02L1812.1 727.994L1976.46 825.02V1018.17L1812.1 1115.19V922.046L1648.54 825.02ZM1812.1 1584.95L1813 1253.5L1976.56 1156.47V1682.78L1531.35 1944.63V1750.58L1812.1 1584.95Z" fill="white"/>
<path d="M1694.81 1516.25L1531.25 1612.37V1419.23L1694.81 1322.2V1516.25Z" fill="white"/>
<path d="M1694.81 990.747L1695.71 1184.8L1414.06 1350.53V1682.78L1250.5 1778.91L1086.94 1682.78V1350.53L805.288 1184.8V990.747L969.551 893.721L1249.5 1060.25L1531.15 893.721L1695.51 990.747H1694.81ZM805.188 659.393L1249.6 396.64L1694.81 659.393L1531.25 756.419L1249.6 589.888L968.75 756.419L805.188 659.393Z" fill="white"/>
</g>
<defs>
<clipPath id="clip0_5_47">
<rect width="2500" height="2507" fill="white"/>
</clipPath>
</defs>
</svg>
