<svg width="2500" height="2500" viewBox="0 0 2500 2500" fill="none" xmlns="http://www.w3.org/2000/svg">
<g clip-path="url(#clip0_5_65)">
<path d="M2462.58 1552.39C2295.61 2222.03 1617.3 2629.56 947.5 2462.58C277.976 2295.62 -129.602 1617.35 37.4418 947.747C204.336 278.027 882.65 -129.545 1552.25 37.4085C2222.01 204.355 2629.56 882.708 2462.58 1552.39Z" fill="#111214"/>
<path d="M1106.41 1809.67C1327.8 1809.67 1507.27 1630.2 1507.27 1408.82C1507.27 1187.42 1327.8 1007.96 1106.41 1007.96C885.013 1007.96 705.547 1187.42 705.547 1408.82C705.547 1630.2 885.013 1809.67 1106.41 1809.67ZM1106.41 1955.44C804.525 1955.44 559.779 1710.7 559.779 1408.82C559.779 1106.93 804.525 862.188 1106.41 862.188C1408.29 862.188 1653.03 1106.93 1653.03 1408.82C1653.03 1710.7 1408.29 1955.44 1106.41 1955.44Z" fill="#FBCC5C"/>
<path d="M1397.94 1518.13C1619.33 1518.13 1798.8 1338.67 1798.8 1117.27C1798.8 895.885 1619.33 716.419 1397.94 716.419C1176.55 716.419 997.077 895.885 997.077 1117.27C997.077 1338.67 1176.55 1518.13 1397.94 1518.13ZM1397.94 1663.9C1096.05 1663.9 851.315 1419.16 851.315 1117.27C851.315 815.391 1096.05 570.651 1397.94 570.651C1699.82 570.651 1944.56 815.391 1944.56 1117.27C1944.56 1419.16 1699.82 1663.9 1397.94 1663.9Z" fill="#35D07F"/>
<path d="M1416 1663.91C1453.9 1617.98 1481.07 1564.16 1495.51 1506.39C1553.28 1491.95 1607.1 1464.79 1653.03 1426.89C1650.93 1493.79 1636.53 1559.73 1610.52 1621.41C1548.84 1647.41 1482.9 1661.82 1416 1663.91ZM1008.83 1019.7C951.06 1034.15 897.247 1061.31 851.315 1099.21C853.408 1032.3 867.817 966.359 893.822 904.681C955.501 878.684 1021.44 864.279 1088.35 862.188C1050.44 908.117 1023.28 961.931 1008.83 1019.7Z" fill="#5EA33B"/>
</g>
<defs>
<clipPath id="clip0_5_65">
<rect width="2500" height="2500" fill="white"/>
</clipPath>
</defs>
</svg>
