<svg width="2500" height="2500" viewBox="0 0 2500 2500" fill="none" xmlns="http://www.w3.org/2000/svg">
<path d="M1250 2500C1940.36 2500 2500 1940.36 2500 1250C2500 559.644 1940.36 0 1250 0C559.644 0 0 559.644 0 1250C0 1940.36 559.644 2500 1250 2500Z" fill="black"/>
<path d="M930.39 975.61L1249.97 1979.21L775.76 1682.07M930.39 975.61L775.76 1682.07M930.39 975.61L1249.97 539V845.23L775.76 1682.07M775.76 1682.07H1724.66M1724.66 1682.07L1250.45 845.23V539L1570.03 975.61M1724.66 1682.07L1570.03 975.61M1724.66 1682.07L1250.45 1979.21L1570.03 975.61" stroke="white" stroke-width="80" stroke-linecap="round" stroke-linejoin="round"/>
</svg>
