<svg width="2502" height="2502" viewBox="0 0 2502 2502" fill="none" xmlns="http://www.w3.org/2000/svg">
<path d="M1251 2501C1941.36 2501 2501 1941.36 2501 1251C2501 560.644 1941.36 1 1251 1C560.644 1 1 560.644 1 1251C1 1941.36 560.644 2501 1251 2501Z" fill="white" stroke="#DDDDDD"/>
<path fill-rule="evenodd" clip-rule="evenodd" d="M1250.99 2276.64V1723.92L609.961 1324.72L1250.99 2276.64Z" fill="#8C8C8C"/>
<path fill-rule="evenodd" clip-rule="evenodd" d="M1251 1723.92V2276.64L1892.03 1324.72L1251 1723.92Z" fill="#010101"/>
<path fill-rule="evenodd" clip-rule="evenodd" d="M1251 161.26V901.644L1892.03 1177.68L1251 161.26Z" fill="#393939"/>
<path fill-rule="evenodd" clip-rule="evenodd" d="M1250.99 161.26L609.961 1177.68L1250.99 901.645V161.26Z" fill="#8C8C8C"/>
<path fill-rule="evenodd" clip-rule="evenodd" d="M609.961 1177.68L1250.99 1536.26V901.647L609.961 1177.68Z" fill="#393939"/>
<path fill-rule="evenodd" clip-rule="evenodd" d="M1251 1536.26L1892.03 1177.68L1251 901.647V1536.26Z" fill="#010101"/>
</svg>
