<?xml version="1.0" encoding="UTF-8"?>
<svg id="Layer_2" data-name="Layer 2" xmlns="http://www.w3.org/2000/svg" viewBox="0 0 24 24">
  <defs>
    <style>
      .cls-1 {
        fill: #7b1af7;
      }

      .cls-1, .cls-2 {
        stroke-width: 0px;
      }

      .cls-2 {
        fill: #fff;
      }
    </style>
  </defs>
  <g id="Layer_1-2" data-name="Layer 1">
    <circle class="cls-1" cx="12" cy="12" r="12"/>
    <g id="Layer_2-2" data-name="Layer 2">
      <g id="Layer_1-2" data-name="Layer 1-2">
        <path class="cls-2" d="M18.14,10.74c-.1-.02-.2-.03-.3-.04h-5.02l.07-.15,2.75-5.41c.03-.07.07-.14.09-.2.06-.12.04-.26-.05-.35-.09-.09-.22-.12-.33-.07-.14.06-.27.14-.38.24l-6.62,5.7-2.33,2.01c-.09.08-.17.17-.23.27-.09.09-.09.23,0,.31.04.04.1.07.16.06.1,0,.2,0,.29,0h4.93c-.03.07-.05.12-.08.17-.9,1.8-1.8,3.55-2.69,5.34-.07.14-.13.29-.17.44-.05.13-.02.27.08.37.11.08.25.08.36,0,.18-.1.34-.21.5-.34l8.85-7.82c.09-.08.17-.17.23-.27.04-.1,0-.21-.09-.26,0,0-.02,0-.03,0Z"/>
      </g>
    </g>
  </g>
</svg>