<?xml version="1.0" encoding="UTF-8"?>
<!DOCTYPE svg PUBLIC "-//W3C//DTD SVG 1.1//EN" "http://www.w3.org/Graphics/SVG/1.1/DTD/svg11.dtd">
<svg xmlns="http://www.w3.org/2000/svg" version="1.1" width="493px" height="506px" style="shape-rendering:geometricPrecision; text-rendering:geometricPrecision; image-rendering:optimizeQuality; fill-rule:evenodd; clip-rule:evenodd" xmlns:xlink="http://www.w3.org/1999/xlink">
<g><path style="opacity:0.969" fill="#0c0c0c" d="M 325.5,102.5 C 325.427,104.027 326.094,105.027 327.5,105.5C 328.338,105.842 328.672,106.508 328.5,107.5C 328.66,109.153 329.326,110.486 330.5,111.5C 332.081,113.674 333.581,116.007 335,118.5C 336.844,115.472 338.678,112.472 340.5,109.5C 341.906,109.027 342.573,108.027 342.5,106.5C 346.006,99.9964 349.673,93.4964 353.5,87C 359.491,86.5005 365.491,86.3338 371.5,86.5C 371.167,87.8333 370.833,89.1667 370.5,90.5C 368.753,94.3299 366.753,97.9966 364.5,101.5C 363.094,101.973 362.427,102.973 362.5,104.5C 357.53,114.437 352.03,124.104 346,133.5C 344.537,136.361 343.703,139.027 343.5,141.5C 342.504,157.325 342.17,173.325 342.5,189.5C 337.833,189.5 333.167,189.5 328.5,189.5C 327.846,171.735 327.179,154.069 326.5,136.5C 324.103,134.338 322.436,131.671 321.5,128.5C 321.573,126.973 320.906,125.973 319.5,125.5C 316.155,119.473 312.821,113.473 309.5,107.5C 309.573,105.973 308.906,104.973 307.5,104.5C 306.4,103.395 305.733,102.062 305.5,100.5C 305.573,98.9731 304.906,97.9731 303.5,97.5C 303.167,96.8333 302.833,96.1667 302.5,95.5C 302.771,93.6203 302.104,92.287 300.5,91.5C 299.069,90.2196 298.402,88.5529 298.5,86.5C 304.868,86.1703 311.202,86.5037 317.5,87.5C 320.195,92.5169 322.862,97.5169 325.5,102.5 Z"/></g>
<g><path style="opacity:0.987" fill="#111111" d="M 125.5,86.5 C 143.008,86.17 160.341,86.5033 177.5,87.5C 179.144,88.3164 180.31,89.6498 181,91.5C 181.671,90.7476 182.504,90.4142 183.5,90.5C 190.908,94.2579 195.741,100.258 198,108.5C 199.895,127.822 199.895,147.155 198,166.5C 197.648,168.247 197.148,169.914 196.5,171.5C 195.094,171.973 194.427,172.973 194.5,174.5C 190.388,182.097 184.054,186.931 175.5,189C 159.107,190.344 142.774,190.51 126.5,189.5C 125.833,188.833 125.167,188.167 124.5,187.5C 124.5,156.167 124.5,124.833 124.5,93.5C 125.468,91.3926 125.802,89.0593 125.5,86.5 Z M 175.5,104.5 C 176.167,105.833 177.167,106.833 178.5,107.5C 179.504,108.683 180.338,110.016 181,111.5C 181.667,128.833 181.667,146.167 181,163.5C 179.167,168 176,171.167 171.5,173C 161.483,173.832 151.483,173.666 141.5,172.5C 140.197,149.186 140.197,125.852 141.5,102.5C 152.893,103.044 164.227,103.711 175.5,104.5 Z"/></g>
<g><path style="opacity:0.986" fill="#070606" d="M 285.5,100.5 C 285.167,101.167 284.833,101.833 284.5,102.5C 274.833,102.5 265.167,102.5 255.5,102.5C 255.169,126.339 255.502,150.006 256.5,173.5C 266.172,173.334 275.839,173.5 285.5,174C 286.765,177.591 286.765,181.424 285.5,185.5C 284.566,186.568 284.232,187.901 284.5,189.5C 260.227,189.4 236.227,189.567 212.5,190C 212,189.5 211.5,189 211,188.5C 210.198,183.581 210.365,178.748 211.5,174C 220.827,173.5 230.161,173.334 239.5,173.5C 240.498,150.006 240.831,126.339 240.5,102.5C 232.833,102.5 225.167,102.5 217.5,102.5C 215.929,103.197 214.429,103.53 213,103.5C 212.085,102.672 211.419,101.672 211,100.5C 210.352,95.7959 210.519,91.1292 211.5,86.5C 236.169,86.3334 260.836,86.5 285.5,87C 286.507,91.1481 286.507,95.6481 285.5,100.5 Z"/></g>
<g><path style="opacity:0.402" fill="#727272" d="M 125.5,86.5 C 125.802,89.0593 125.468,91.3926 124.5,93.5C 124.739,91.5328 124.406,89.6995 123.5,88C 124.044,87.2828 124.711,86.7828 125.5,86.5 Z"/></g>
<g><path style="opacity:0.831" fill="#555555" d="M 177.5,87.5 C 179.97,87.6535 181.97,88.6535 183.5,90.5C 182.504,90.4142 181.671,90.7476 181,91.5C 180.31,89.6498 179.144,88.3164 177.5,87.5 Z"/></g>
<g><path style="opacity:0.024" fill="#858585" d="M 371.5,86.5 C 372.853,88.1284 372.519,89.4617 370.5,90.5C 370.833,89.1667 371.167,87.8333 371.5,86.5 Z"/></g>
<g><path style="opacity:0.122" fill="#909090" d="M 300.5,91.5 C 302.104,92.287 302.771,93.6203 302.5,95.5C 301.326,94.4863 300.66,93.153 300.5,91.5 Z"/></g>
<g><path style="opacity:0.024" fill="#b3b3b3" d="M 303.5,97.5 C 304.906,97.9731 305.573,98.9731 305.5,100.5C 304.094,100.027 303.427,99.0269 303.5,97.5 Z"/></g>
<g><path style="opacity:0.004" fill="#cbcbcb" d="M 285.5,100.5 C 286.757,101.623 286.424,102.289 284.5,102.5C 284.833,101.833 285.167,101.167 285.5,100.5 Z"/></g>
<g><path style="opacity:0.129" fill="#818181" d="M 325.5,102.5 C 326.906,102.973 327.573,103.973 327.5,105.5C 326.094,105.027 325.427,104.027 325.5,102.5 Z"/></g>
<g><path style="opacity:0.027" fill="#9e9e9e" d="M 364.5,101.5 C 364.573,103.027 363.906,104.027 362.5,104.5C 362.427,102.973 363.094,101.973 364.5,101.5 Z"/></g>
<g><path style="opacity:0.208" fill="#acacac" d="M 175.5,104.5 C 177.5,104.5 178.5,105.5 178.5,107.5C 177.167,106.833 176.167,105.833 175.5,104.5 Z"/></g>
<g><path style="opacity:0.043" fill="#afafaf" d="M 307.5,104.5 C 308.906,104.973 309.573,105.973 309.5,107.5C 308.094,107.027 307.427,106.027 307.5,104.5 Z"/></g>
<g><path style="opacity:0.059" fill="#c3c3c3" d="M 342.5,106.5 C 342.573,108.027 341.906,109.027 340.5,109.5C 340.427,107.973 341.094,106.973 342.5,106.5 Z"/></g>
<g><path style="opacity:0.024" fill="#8e8e8e" d="M 328.5,107.5 C 330.104,108.287 330.771,109.62 330.5,111.5C 329.326,110.486 328.66,109.153 328.5,107.5 Z"/></g>
<g><path style="opacity:0.035" fill="#b8b8b8" d="M 319.5,125.5 C 320.906,125.973 321.573,126.973 321.5,128.5C 320.094,128.027 319.427,127.027 319.5,125.5 Z"/></g>
<g><path style="opacity:0.063" fill="#979797" d="M 217.5,102.5 C 225.167,102.5 232.833,102.5 240.5,102.5C 240.831,126.339 240.498,150.006 239.5,173.5C 239.5,150.167 239.5,126.833 239.5,103.5C 231.981,103.825 224.648,103.492 217.5,102.5 Z"/></g>
<g><path style="opacity:0.172" fill="#919191" d="M 284.5,102.5 C 275.348,103.494 266.015,103.827 256.5,103.5C 256.5,126.833 256.5,150.167 256.5,173.5C 255.502,150.006 255.169,126.339 255.5,102.5C 265.167,102.5 274.833,102.5 284.5,102.5 Z"/></g>
<g><path style="opacity:0.146" fill="#959595" d="M 343.5,141.5 C 343.182,157.215 343.516,172.881 344.5,188.5C 344.043,189.298 343.376,189.631 342.5,189.5C 342.17,173.325 342.504,157.325 343.5,141.5 Z"/></g>
<g><path style="opacity:0.075" fill="#5d5d5d" d="M 326.5,136.5 C 327.179,154.069 327.846,171.735 328.5,189.5C 326.514,172.198 325.847,154.532 326.5,136.5 Z"/></g>
<g><path style="opacity:0.063" fill="#b5b5b5" d="M 196.5,171.5 C 196.573,173.027 195.906,174.027 194.5,174.5C 194.427,172.973 195.094,171.973 196.5,171.5 Z"/></g>
<g><path style="opacity:0.224" fill="#9c9a9c" d="M 285.5,185.5 C 285.539,186.583 285.873,187.583 286.5,188.5C 286.043,189.298 285.376,189.631 284.5,189.5C 284.232,187.901 284.566,186.568 285.5,185.5 Z"/></g>
<g><path style="opacity:0.278" fill="#7e7e7e" d="M 124.5,187.5 C 125.167,188.167 125.833,188.833 126.5,189.5C 126.095,190.55 125.429,190.55 124.5,189.5C 123.227,188.743 123.227,188.077 124.5,187.5 Z"/></g>
<g><path style="opacity:0.986" fill="#111111" d="M 192.5,224.5 C 193.418,228.212 193.418,231.878 192.5,235.5C 190.901,235.232 189.568,235.566 188.5,236.5C 185.482,236.665 182.482,236.498 179.5,236C 178.617,229.193 174.95,224.86 168.5,223C 161.101,222.152 153.767,222.485 146.5,224C 145.295,225.376 143.962,226.542 142.5,227.5C 141.325,227.281 140.325,227.614 139.5,228.5C 139.319,232.183 139.652,235.85 140.5,239.5C 141.488,240.795 142.488,242.128 143.5,243.5C 143.833,245.833 145.167,247.167 147.5,247.5C 155.507,247.334 163.507,247.5 171.5,248C 175.436,248.972 179.103,250.472 182.5,252.5C 182.5,254.5 183.5,255.5 185.5,255.5C 185.5,256.167 185.833,256.5 186.5,256.5C 186.5,258.5 187.5,259.5 189.5,259.5C 191.935,262.374 193.269,265.707 193.5,269.5C 193.5,274.167 193.5,278.833 193.5,283.5C 190.507,294.348 183.507,301.182 172.5,304C 163.833,304.667 155.167,304.667 146.5,304C 143.428,303.422 140.761,302.255 138.5,300.5C 138.027,299.094 137.027,298.427 135.5,298.5C 134.508,298.672 133.842,298.338 133.5,297.5C 133.5,295.5 132.5,294.5 130.5,294.5C 126.524,289.203 124.191,283.203 123.5,276.5C 125.117,275.962 126.784,275.629 128.5,275.5C 132.034,275.532 135.201,275.198 138,274.5C 140.039,275.978 140.872,277.978 140.5,280.5C 140.273,282.933 141.273,284.599 143.5,285.5C 145.78,286.64 148.114,287.807 150.5,289C 156.167,289.667 161.833,289.667 167.5,289C 170.961,288.462 173.961,286.629 176.5,283.5C 177.15,283.196 177.817,282.863 178.5,282.5C 179.659,278.878 179.825,275.211 179,271.5C 178.617,270.944 178.117,270.611 177.5,270.5C 175.525,267.039 172.525,264.873 168.5,264C 160.833,263.667 153.167,263.333 145.5,263C 126.429,255.685 120.096,242.185 126.5,222.5C 128.531,221.461 129.864,219.795 130.5,217.5C 133.405,213.111 137.405,209.944 142.5,208C 152.439,206.438 162.439,206.105 172.5,207C 182.211,209.555 188.878,215.389 192.5,224.5 Z"/></g>
<g><path style="opacity:0.988" fill="#141313" d="M 275.5,289.5 C 275.5,294.167 275.5,298.833 275.5,303.5C 252.5,303.5 229.5,303.5 206.5,303.5C 205.336,271.669 205.169,239.669 206,207.5C 229.425,206.506 252.925,206.173 276.5,206.5C 276.5,211.833 276.5,217.167 276.5,222.5C 258.167,222.5 239.833,222.5 221.5,222.5C 221.5,230.833 221.5,239.167 221.5,247.5C 235.171,247.333 248.837,247.5 262.5,248C 262.859,253.103 262.859,258.27 262.5,263.5C 248.833,263.5 235.167,263.5 221.5,263.5C 221.5,272.167 221.5,280.833 221.5,289.5C 239.5,289.5 257.5,289.5 275.5,289.5 Z"/></g>
<g><path style="opacity:0.986" fill="#131313" d="M 336.5,207.5 C 337.93,208.537 339.597,209.204 341.5,209.5C 353.267,214.611 358.934,223.611 358.5,236.5C 353.305,236.821 348.305,236.487 343.5,235.5C 343.66,233.801 343.494,232.134 343,230.5C 342.583,229.244 341.75,228.577 340.5,228.5C 339.375,226.871 338.041,225.371 336.5,224C 327.833,222 319.167,222 310.5,224C 309,225.5 307.5,227 306,228.5C 304.361,246.076 304.028,263.742 305,281.5C 306.405,282.731 307.571,284.064 308.5,285.5C 309.665,288.59 311.998,289.924 315.5,289.5C 322.257,289.877 328.924,289.377 335.5,288C 340.224,284.878 342.89,280.545 343.5,275C 345.751,275.207 348.085,275.373 350.5,275.5C 352.607,276.468 354.941,276.802 357.5,276.5C 357.5,278.833 357.5,281.167 357.5,283.5C 357.453,286.928 356.287,289.928 354,292.5C 349.83,298.351 344.33,302.185 337.5,304C 328.5,304.667 319.5,304.667 310.5,304C 300.289,302.082 293.622,296.249 290.5,286.5C 290.59,283.848 289.924,281.515 288.5,279.5C 287.339,264.005 287.172,248.339 288,232.5C 292.047,213.295 303.88,204.628 323.5,206.5C 328.013,206.501 332.347,206.834 336.5,207.5 Z"/></g>
<g><path style="opacity:0.076" fill="#b1b1b1" d="M 336.5,207.5 C 338.698,207.12 340.365,207.787 341.5,209.5C 339.597,209.204 337.93,208.537 336.5,207.5 Z"/></g>
<g><path style="opacity:0.278" fill="#969496" d="M 130.5,217.5 C 129.864,219.795 128.531,221.461 126.5,222.5C 127.124,220.246 128.457,218.579 130.5,217.5 Z"/></g>
<g><path style="opacity:0.122" fill="#797979" d="M 340.5,228.5 C 341.75,228.577 342.583,229.244 343,230.5C 343.494,232.134 343.66,233.801 343.5,235.5C 342.659,233.188 341.659,230.855 340.5,228.5 Z"/></g>
<g><path style="opacity:0.016" fill="#4d4c4d" d="M 142.5,227.5 C 140.857,231.295 140.191,235.295 140.5,239.5C 139.652,235.85 139.319,232.183 139.5,228.5C 140.325,227.614 141.325,227.281 142.5,227.5 Z"/></g>
<g><path style="opacity:0.227" fill="#5e5c5d" d="M 192.5,224.5 C 193.71,227.477 194.71,230.644 195.5,234C 195.355,234.772 195.022,235.439 194.5,236C 192.527,236.495 190.527,236.662 188.5,236.5C 189.568,235.566 190.901,235.232 192.5,235.5C 193.418,231.878 193.418,228.212 192.5,224.5 Z"/></g>
<g><path style="opacity:0.176" fill="#7b7b7b" d="M 143.5,243.5 C 145.167,244.5 146.5,245.833 147.5,247.5C 145.167,247.167 143.833,245.833 143.5,243.5 Z"/></g>
<g><path style="opacity:0.012" fill="#9b9b9b" d="M 182.5,252.5 C 183.833,253.167 184.833,254.167 185.5,255.5C 183.5,255.5 182.5,254.5 182.5,252.5 Z"/></g>
<g><path style="opacity:0.008" fill="#828282" d="M 186.5,256.5 C 187.833,257.167 188.833,258.167 189.5,259.5C 187.5,259.5 186.5,258.5 186.5,256.5 Z"/></g>
<g><path style="opacity:0.082" fill="#545253" d="M 193.5,269.5 C 194.224,271.218 194.891,273.052 195.5,275C 195.304,277.79 194.637,280.623 193.5,283.5C 193.5,278.833 193.5,274.167 193.5,269.5 Z"/></g>
<g><path style="opacity:0.012" fill="#a8a8a8" d="M 128.5,275.5 C 126.784,275.629 125.117,275.962 123.5,276.5C 124.879,274.403 126.545,274.07 128.5,275.5 Z"/></g>
<g><path style="opacity:0.176" fill="#585858" d="M 357.5,283.5 C 357.5,281.167 357.5,278.833 357.5,276.5C 354.941,276.802 352.607,276.468 350.5,275.5C 353.212,275.263 355.712,275.263 358,275.5C 358.801,278.367 358.634,281.034 357.5,283.5 Z"/></g>
<g><path style="opacity:0.553" fill="#565656" d="M 177.5,270.5 C 178.117,270.611 178.617,270.944 179,271.5C 179.825,275.211 179.659,278.878 178.5,282.5C 177.817,282.863 177.15,283.196 176.5,283.5C 178.623,279.307 178.956,274.973 177.5,270.5 Z"/></g>
<g><path style="opacity:0.133" fill="#818181" d="M 140.5,280.5 C 141.89,281.899 142.89,283.566 143.5,285.5C 141.273,284.599 140.273,282.933 140.5,280.5 Z"/></g>
<g><path style="opacity:0.408" fill="#605f5f" d="M 288.5,279.5 C 289.924,281.515 290.59,283.848 290.5,286.5C 289.076,284.485 288.41,282.152 288.5,279.5 Z"/></g>
<g><path style="opacity:0.282" fill="#757575" d="M 308.5,285.5 C 310.738,287.116 313.071,288.449 315.5,289.5C 311.998,289.924 309.665,288.59 308.5,285.5 Z"/></g>
<g><path style="opacity:0.216" fill="#868686" d="M 130.5,294.5 C 132.5,294.5 133.5,295.5 133.5,297.5C 132.167,296.833 131.167,295.833 130.5,294.5 Z"/></g>
<g><path style="opacity:0.231" fill="#7f7f7f" d="M 135.5,298.5 C 137.027,298.427 138.027,299.094 138.5,300.5C 136.973,300.573 135.973,299.906 135.5,298.5 Z"/></g>
<g><path style="opacity:0.315" fill="#777777" d="M 275.5,289.5 C 276.487,294.305 276.821,299.305 276.5,304.5C 252.994,304.831 229.661,304.498 206.5,303.5C 229.5,303.5 252.5,303.5 275.5,303.5C 275.5,298.833 275.5,294.167 275.5,289.5 Z"/></g>
<g><path style="opacity:0.976" fill="#131313" d="M 138.5,319.5 C 138.833,320.167 139.167,320.833 139.5,321.5C 139.5,348.167 139.5,374.833 139.5,401.5C 157.845,401.167 176.179,401.5 194.5,402.5C 195.309,407.238 195.476,411.905 195,416.5C 171.575,417.494 148.075,417.827 124.5,417.5C 124.826,385.123 124.493,352.79 123.5,320.5C 128.456,319.506 133.456,319.173 138.5,319.5 Z"/></g>
<g><path style="opacity:0.004" fill="#c4c4c4" d="M 138.5,319.5 C 140.424,319.711 140.757,320.377 139.5,321.5C 139.167,320.833 138.833,320.167 138.5,319.5 Z"/></g>
<g><path style="opacity:0.984" fill="#111111" d="M 338.5,320.5 C 339.287,322.104 340.62,322.771 342.5,322.5C 343.609,322.557 344.609,322.89 345.5,323.5C 345.81,325.144 346.81,326.144 348.5,326.5C 348.833,326.5 349.167,326.5 349.5,326.5C 352.651,330.961 355.317,335.628 357.5,340.5C 360.829,351.491 357.829,360.491 348.5,367.5C 347.243,368.623 347.576,369.289 349.5,369.5C 352.556,371.949 354.889,374.949 356.5,378.5C 356.565,381.428 357.232,384.095 358.5,386.5C 359.062,392.03 358.062,397.364 355.5,402.5C 354.094,402.973 353.427,403.973 353.5,405.5C 349.628,411.785 343.961,415.618 336.5,417C 320.259,417.824 304.093,417.658 288,416.5C 287.5,384.168 287.333,351.835 287.5,319.5C 289.467,319.739 291.301,319.406 293,318.5C 308.166,319.174 323.333,319.841 338.5,320.5 Z M 334.5,335.5 C 336.142,336.803 337.809,338.136 339.5,339.5C 340.167,339.5 340.5,339.833 340.5,340.5C 340.427,342.027 341.094,343.027 342.5,343.5C 342.658,346.902 342.324,350.236 341.5,353.5C 340.662,353.842 340.328,354.508 340.5,355.5C 337.797,357.181 335.131,358.847 332.5,360.5C 323.167,360.5 313.833,360.5 304.5,360.5C 304.169,352.017 304.169,343.683 304.5,335.5C 314.5,335.5 324.5,335.5 334.5,335.5 Z M 339.5,380.5 C 340.026,382.23 341.026,383.564 342.5,384.5C 342.249,387.29 342.249,390.29 342.5,393.5C 341.094,393.973 340.427,394.973 340.5,396.5C 338.401,397.752 336.401,399.252 334.5,401C 324.167,401.667 313.833,401.667 303.5,401C 304.482,392.919 304.816,384.752 304.5,376.5C 314.172,376.334 323.839,376.5 333.5,377C 335.887,377.564 337.887,378.73 339.5,380.5 Z"/></g>
<g><path style="opacity:0.975" fill="#100f10" d="M 267.5,326.5 C 268.433,329.37 270.1,331.704 272.5,333.5C 274.694,335.221 275.861,337.555 276,340.5C 276.667,365.833 276.667,391.167 276,416.5C 271,417.833 266,417.833 261,416.5C 260.5,407.506 260.334,398.506 260.5,389.5C 247.5,389.5 234.5,389.5 221.5,389.5C 221.5,398.833 221.5,408.167 221.5,417.5C 216.238,417.805 211.072,417.471 206,416.5C 205.333,392.5 205.333,368.5 206,344.5C 206.384,338.882 208.551,334.216 212.5,330.5C 214.167,329.5 215.5,328.167 216.5,326.5C 216.833,325.5 217.5,324.833 218.5,324.5C 220.027,324.573 221.027,323.906 221.5,322.5C 223.512,321.772 225.512,320.938 227.5,320C 237.167,319.333 246.833,319.333 256.5,320C 260.524,321.674 264.191,323.841 267.5,326.5 Z M 260.5,344.5 C 260.5,354.167 260.5,363.833 260.5,373.5C 248.322,373.172 236.322,373.505 224.5,374.5C 223.504,374.586 222.671,374.252 222,373.5C 221.333,364.5 221.333,355.5 222,346.5C 223.306,342.187 225.806,338.687 229.5,336C 237.5,335.333 245.5,335.333 253.5,336C 256.423,338.416 258.757,341.25 260.5,344.5 Z"/></g>
<g><path style="opacity:0.165" fill="#808080" d="M 338.5,320.5 C 340.153,320.66 341.486,321.326 342.5,322.5C 340.62,322.771 339.287,322.104 338.5,320.5 Z"/></g>
<g><path style="opacity:0.212" fill="#989898" d="M 221.5,322.5 C 221.027,323.906 220.027,324.573 218.5,324.5C 218.973,323.094 219.973,322.427 221.5,322.5 Z"/></g>
<g><path style="opacity:0.353" fill="#808080" d="M 345.5,323.5 C 347.19,323.856 348.19,324.856 348.5,326.5C 346.81,326.144 345.81,325.144 345.5,323.5 Z"/></g>
<g><path style="opacity:0.208" fill="#a5a5a5" d="M 216.5,326.5 C 215.5,328.167 214.167,329.5 212.5,330.5C 212.833,328.167 214.167,326.833 216.5,326.5 Z"/></g>
<g><path style="opacity:0.294" fill="#5a5a5a" d="M 267.5,326.5 C 269.9,328.296 271.567,330.63 272.5,333.5C 270.1,331.704 268.433,329.37 267.5,326.5 Z"/></g>
<g><path style="opacity:0.118" fill="#7b7b7b" d="M 334.5,335.5 C 337.367,335.369 339.033,336.703 339.5,339.5C 337.809,338.136 336.142,336.803 334.5,335.5 Z"/></g>
<g><path style="opacity:0.712" fill="#494849" d="M 349.5,326.5 C 354.226,329.947 356.892,334.614 357.5,340.5C 355.317,335.628 352.651,330.961 349.5,326.5 Z"/></g>
<g><path style="opacity:0.055" fill="#aaaaaa" d="M 340.5,340.5 C 341.906,340.973 342.573,341.973 342.5,343.5C 341.094,343.027 340.427,342.027 340.5,340.5 Z"/></g>
<g><path style="opacity:0.125" fill="#7b7b7b" d="M 342.5,343.5 C 343.638,346.304 343.805,349.304 343,352.5C 342.617,353.056 342.117,353.389 341.5,353.5C 342.324,350.236 342.658,346.902 342.5,343.5 Z"/></g>
<g><path style="opacity:0.129" fill="#737373" d="M 340.5,355.5 C 339.969,357.624 338.635,359.124 336.5,360C 335.207,360.49 333.873,360.657 332.5,360.5C 335.131,358.847 337.797,357.181 340.5,355.5 Z"/></g>
<g><path style="opacity:0.133" fill="#b9b9b9" d="M 348.5,367.5 C 348.833,368.167 349.167,368.833 349.5,369.5C 347.576,369.289 347.243,368.623 348.5,367.5 Z"/></g>
<g><path style="opacity:0.012" fill="#8f8f8f" d="M 260.5,344.5 C 261.494,354.319 261.827,364.319 261.5,374.5C 249.167,374.5 236.833,374.5 224.5,374.5C 236.322,373.505 248.322,373.172 260.5,373.5C 260.5,363.833 260.5,354.167 260.5,344.5 Z"/></g>
<g><path style="opacity:0.684" fill="#626262" d="M 339.5,380.5 C 340.5,380.5 341.5,380.5 342.5,380.5C 342.5,381.833 342.5,383.167 342.5,384.5C 341.026,383.564 340.026,382.23 339.5,380.5 Z"/></g>
<g><path style="opacity:0.188" fill="#5f5d5d" d="M 356.5,378.5 C 358.04,380.838 358.706,383.505 358.5,386.5C 357.232,384.095 356.565,381.428 356.5,378.5 Z"/></g>
<g><path style="opacity:0.224" fill="#737373" d="M 342.5,384.5 C 343.833,387.5 343.833,390.5 342.5,393.5C 342.249,390.29 342.249,387.29 342.5,384.5 Z"/></g>
<g><path style="opacity:0.298" fill="#8c8c8c" d="M 342.5,393.5 C 342.573,395.027 341.906,396.027 340.5,396.5C 340.427,394.973 341.094,393.973 342.5,393.5 Z"/></g>
<g><path style="opacity:0.012" fill="#777777" d="M 355.5,402.5 C 355.573,404.027 354.906,405.027 353.5,405.5C 353.427,403.973 354.094,402.973 355.5,402.5 Z"/></g>
</svg>
