<svg width="2500" height="2500" viewBox="0 0 2500 2500" fill="none" xmlns="http://www.w3.org/2000/svg">
<path d="M0 1250C0 1940.36 559.644 2500 1250 2500C1940.36 2500 2500 1940.36 2500 1250C2500 559.644 1940.36 0 1250 0C559.644 0 0 559.644 0 1250Z" fill="#00EC97"/>
<path d="M1789.71 563C1738.85 563 1691.64 589.366 1665.01 632.708L1378.01 1058.81C1368.67 1072.85 1372.46 1091.78 1386.5 1101.13C1397.89 1108.72 1412.94 1107.78 1423.31 1098.86L1705.8 853.833C1710.5 849.609 1717.73 850.04 1721.96 854.734C1723.87 856.886 1724.89 859.663 1724.89 862.517V1629.68C1724.89 1636.01 1719.77 1641.1 1713.43 1641.1C1710.03 1641.1 1706.82 1639.61 1704.67 1636.99L850.735 614.792C822.924 581.971 782.087 563.039 739.098 563H709.255C628.48 563 563 628.482 563 709.259V1789.74C563 1870.52 628.48 1936 709.255 1936C760.103 1936 807.316 1909.63 833.954 1866.29L1120.95 1440.19C1130.29 1426.15 1126.5 1407.22 1112.46 1397.87C1101.08 1390.28 1086.02 1391.22 1075.65 1400.14L793.157 1645.17C788.463 1649.39 781.226 1648.96 777.003 1644.27C775.086 1642.11 774.068 1639.34 774.107 1636.48V869.129C774.107 862.792 779.231 857.705 785.568 857.705C788.933 857.705 792.18 859.193 794.33 861.813L1648.15 1884.21C1675.96 1917.03 1716.79 1935.96 1759.78 1936H1789.63C1870.4 1936.04 1935.92 1870.6 1936 1789.82V709.259C1936 628.482 1870.52 563 1789.75 563H1789.71Z" fill="black"/>
</svg>
