<?xml version="1.0" encoding="UTF-8"?>
<svg id="Layer_2" data-name="Layer 2" xmlns="http://www.w3.org/2000/svg" viewBox="0 0 24 24">
  <defs>
    <style>
      .cls-1 {
        fill: #f89300;
      }

      .cls-1, .cls-2 {
        stroke-width: 0px;
      }

      .cls-2 {
        fill: #fff;
      }
    </style>
  </defs>
  <g id="Layer_1-2" data-name="Layer 1">
    <circle class="cls-1" cx="12" cy="12" r="12"/>
    <path class="cls-2" d="M18.63,8.96c0-.74-.6-1.35-1.35-1.35-.26,0-.51.08-.72.21l-3.19-1.84v-.04c.06-.74-.5-1.39-1.24-1.45-.74-.06-1.39.5-1.45,1.24,0,.07,0,.14,0,.21v.04l-3.25,1.89c-.23-.16-.5-.24-.77-.25-.74,0-1.34.61-1.34,1.35,0,.55.33,1.04.84,1.24v3.54c-.69.28-1.02,1.06-.74,1.75.21.51.7.84,1.24.84.28,0,.55-.09.77-.25l3.28,1.88v.05c-.06.74.5,1.39,1.24,1.45.74.06,1.39-.5,1.45-1.24,0-.07,0-.14,0-.21v-.07l3.19-1.85c.21.14.47.21.72.21.74,0,1.34-.59,1.35-1.32,0-.51-.28-.98-.74-1.21v-3.65c.44-.24.71-.7.71-1.2ZM11.49,16.8c-.15.07-.28.16-.39.27l-3.11-1.8c0-.09,0-.19,0-.28,0-.54-.32-1.04-.82-1.25v-3.54c.14-.05.26-.12.38-.21l1.3.71v3.12l2.65,1.53v1.44ZM9.33,9.85l-1.33-.73c0-.05,0-.11,0-.16,0-.09,0-.18,0-.27l3.08-1.79c.26.25.6.39.95.39.35,0,.69-.14.94-.39l3.01,1.73c-.03.11-.04.22-.04.33,0,.06,0,.13,0,.19l-1.21.71-2.71-1.57-2.7,1.57ZM16.9,13.71c-.57.17-.96.69-.96,1.29,0,.11.01.22.04.33l-3.01,1.75c-.14-.14-.31-.25-.5-.31v-1.34l2.76-1.64v-3.12l1.21-.7c.14.11.29.19.46.24v3.5Z"/>
  </g>
</svg>