<svg width="2500" height="2500" viewBox="0 0 2500 2500" fill="none" xmlns="http://www.w3.org/2000/svg">
<g clip-path="url(#clip0_5_54)">
<path d="M1250 2500C1940.36 2500 2500 1940.36 2500 1250C2500 559.644 1940.36 0 1250 0C559.644 0 0 559.644 0 1250C0 1940.36 559.644 2500 1250 2500Z" fill="#FF0420"/>
<path d="M885.5 1582C811 1582 750 1564.5 702.5 1529.5C655.5 1494 632 1443 632 1377.5C632 1363.5 633.5 1347 636.5 1327C644.5 1282 656 1228 671 1164.5C713.5 992.5 823.5 906.5 1000.5 906.5C1048.5 906.5 1092 914.5 1130 931C1168 946.5 1198 970.5 1220 1002.5C1242 1034 1253 1071.5 1253 1115C1253 1128 1251.5 1144.5 1248.5 1164.5C1239 1220 1228 1274.5 1214.5 1327C1192.5 1412.5 1155 1477 1101 1519.5C1047.5 1561.5 975.5 1582 885.5 1582ZM899 1447C934 1447 963.5 1436.5 988 1416C1013 1395.5 1031 1364 1041.5 1321C1056 1262 1067 1211 1074.5 1167C1077 1154 1078.5 1140.5 1078.5 1126.5C1078.5 1069.5 1049 1041 989.5 1041C954.5 1041 924.5 1051.5 899.5 1072C875 1092.5 857.5 1124 847 1167C835.5 1209 824.5 1260 813 1321C810.5 1333.5 809 1346.5 809 1360.5C808.5 1418.5 839 1447 899 1447Z" fill="white"/>
<path d="M1296.5 1573C1289.5 1573 1284.5 1571 1280.5 1566.5C1277.5 1561.5 1276.5 1556 1277.5 1549.5L1407 939.5C1408 932.5 1411.5 927 1417.5 922.5C1423 918 1429 916 1435.5 916H1685C1754.5 916 1810 930.5 1852 959C1894.5 988 1916 1029.5 1916 1084C1916 1099.5 1914 1116 1910.5 1133C1895 1205 1863.5 1258 1815.5 1292.5C1768.5 1327 1704 1344 1622 1344H1495.5L1452.5 1549.5C1451 1556.5 1448 1562 1442 1566.5C1436.5 1571 1430.5 1573 1424 1573H1296.5ZM1628.5 1214.5C1655 1214.5 1677.5 1207.5 1697 1193C1717 1178.5 1730 1158 1736.5 1131C1738.5 1120.5 1739.5 1111 1739.5 1103C1739.5 1085 1734 1071 1723.5 1061.5C1713 1051.5 1694.5 1046.5 1669 1046.5H1556.5L1521 1214.5H1628.5Z" fill="white"/>
</g>
<defs>
<clipPath id="clip0_5_54">
<rect width="2500" height="2500" fill="white"/>
</clipPath>
</defs>
</svg>
