<svg width="2500" height="2500" viewBox="0 0 2500 2500" fill="none" xmlns="http://www.w3.org/2000/svg">
<path d="M1249.51 0C1940.18 0 2500 559.709 2500 1250.25C2500 1940.78 1940.18 2500 1250 2500C559.327 2500 0.00032396 1940.29 0.00032396 1250.25C-0.491608 559.709 559.327 0 1249.51 0Z" fill="#8247E5"/>
<mask id="mask0_5_125" style="mask-type:luminance" maskUnits="userSpaceOnUse" x="421" y="540" width="1640" height="1437">
<path d="M2060.41 540.527H421.626V1976.2H2060.41V540.527Z" fill="white"/>
</mask>
<g mask="url(#mask0_5_125)">
<path d="M1659.44 977.769C1629.43 960.555 1591.06 960.555 1557.11 977.769L1318.01 1119.42L1155.66 1209.42L920.984 1350.58C890.974 1367.79 852.599 1367.79 818.653 1350.58L635.145 1238.93C605.134 1221.72 583.979 1187.29 583.979 1148.93V934.487C583.979 900.059 601.198 866.122 635.145 844.482L818.653 737.261C848.663 720.047 887.038 720.047 920.984 737.261L1104.49 848.908C1134.5 866.122 1155.66 900.551 1155.66 938.914V1080.56L1318.01 986.13V840.547C1318.01 806.118 1300.79 772.182 1266.84 750.541L925.412 548.888C895.401 531.674 857.027 531.674 823.081 548.888L473.284 754.967C439.338 772.182 422.118 806.61 422.118 840.547V1243.36C422.118 1277.79 439.338 1311.73 473.284 1333.37L819.145 1535.02C849.155 1552.23 887.53 1552.23 921.476 1535.02L1156.15 1397.8L1318.5 1303.36L1553.18 1166.14C1583.19 1148.93 1621.56 1148.93 1655.51 1166.14L1839.02 1273.36C1869.03 1290.58 1890.18 1325 1890.18 1363.37V1577.81C1890.18 1612.24 1872.96 1646.17 1839.02 1667.81L1659.94 1775.03C1629.93 1792.25 1591.55 1792.25 1557.6 1775.03L1373.6 1667.81C1343.59 1650.6 1322.44 1616.17 1322.44 1577.81V1440.59L1160.09 1535.02V1676.67C1160.09 1711.1 1177.3 1745.03 1211.25 1766.67L1557.11 1968.33C1587.12 1985.54 1625.5 1985.54 1659.44 1968.33L2005.3 1766.67C2035.32 1749.46 2056.47 1715.03 2056.47 1676.67V1269.43C2056.47 1235 2039.25 1201.06 2005.3 1179.42L1659.44 977.769Z" fill="white"/>
</g>
</svg>
