<svg width="2500" height="2500" viewBox="0 0 2500 2500" fill="none" xmlns="http://www.w3.org/2000/svg">
<path d="M1248.98 0H1251.02C1940.7 0 2500 544.604 2500 1216.15V1283.85C2500 1955.4 1940.7 2500 1251.02 2500H1248.98C559.305 2500 0 1955.4 0 1283.85V1216.15C0 544.604 559.305 0 1248.98 0Z" fill="#232323"/>
<path d="M1784.48 941.698C1780.39 946.177 1775.27 949.661 1769.65 951.651C1764.02 954.14 1757.89 955.135 1751.75 955.135H593.466C552.555 955.135 531.588 905.369 560.226 875.51L750.46 678.934C754.551 674.456 759.665 670.972 765.802 668.484C771.427 665.995 777.564 665 783.7 665H1946.59C1988.01 665 2008.46 715.264 1979.31 745.123L1784.48 941.698ZM1784.48 1820.56C1775.78 1829.02 1764.02 1834 1751.75 1834H593.466C552.555 1834 531.588 1785.23 560.226 1756.37L750.46 1564.27C754.551 1559.79 760.177 1556.31 765.802 1554.32C771.427 1551.83 777.564 1550.83 783.7 1550.83H1946.59C1988.01 1550.83 2008.46 1600.1 1979.31 1628.96L1784.48 1820.56ZM1784.48 1121.35C1775.78 1112.89 1764.02 1107.92 1751.75 1107.92H593.466C552.555 1107.92 531.588 1156.69 560.226 1185.55L750.46 1377.65C754.551 1382.13 760.177 1385.61 765.802 1387.6C771.427 1390.09 777.564 1391.08 783.7 1391.08H1946.59C1988.01 1391.08 2008.46 1341.82 1979.31 1312.95L1784.48 1121.35Z" fill="url(#paint0_linear_5_118)"/>
<defs>
<linearGradient id="paint0_linear_5_118" x1="635.419" y1="1848.59" x2="1867.24" y2="616.232" gradientUnits="userSpaceOnUse">
<stop stop-color="#CF41E8"/>
<stop offset="1" stop-color="#10F2B0"/>
</linearGradient>
</defs>
</svg>
