<svg width="2500" height="2500" viewBox="0 0 2500 2500" fill="none" xmlns="http://www.w3.org/2000/svg">
<path d="M1250 2500C1940.55 2500 2500 1940.18 2500 1250.24C2500 560.303 1940.55 0 1250 0C559.451 0 0 559.823 0 1249.76C0 1939.7 559.451 2500 1250 2500Z" fill="#2C7DF7"/>
<path d="M1369.71 1969C1268.4 1969 1194.93 1944.5 1148.36 1895.99C1105.14 1854.68 1080.17 1797.99 1078.73 1738.43C1078.25 1720.18 1082.57 1702.4 1090.74 1686.55C1098.9 1672.62 1109.94 1661.09 1123.87 1653.41C1139.71 1645.24 1157.48 1641.4 1175.73 1641.4C1193.49 1641.4 1211.26 1645.72 1227.58 1653.41C1241.51 1661.09 1252.55 1672.62 1260.71 1686.55C1269.36 1702.4 1273.68 1720.66 1273.2 1738.43C1274.16 1760.05 1267.92 1781.66 1255.43 1799.44C1244.87 1813.85 1230.46 1824.89 1213.18 1830.18C1229.98 1851.31 1253.51 1866.2 1279.44 1871.49C1308.73 1880.13 1339.46 1884.46 1370.19 1884.46C1410.53 1884.94 1450.38 1872.93 1483.99 1850.35C1519.04 1825.86 1544.97 1790.31 1558.42 1749.48C1575.22 1700.96 1583.39 1650.05 1582.91 1598.65C1584.35 1545.33 1575.22 1492.01 1556.5 1442.05C1542.09 1402.18 1515.2 1367.6 1479.67 1344.54C1446.54 1323.41 1408.13 1312.84 1369.23 1312.84C1335.14 1315.72 1302.01 1326.77 1273.2 1345.5L1202.13 1381.05V1345.5L1521.45 917.028H1078.73V1361.83C1077.29 1394.02 1085.93 1425.72 1103.22 1452.62C1111.38 1464.63 1122.91 1473.76 1135.87 1480C1148.84 1486.25 1163.24 1489.13 1177.65 1488.17C1204.06 1487.69 1229.98 1478.56 1251.11 1462.23C1275.12 1444.94 1295.77 1423.32 1312.57 1398.82C1314.01 1394.5 1316.89 1390.66 1320.74 1388.25C1323.62 1385.85 1327.46 1384.41 1331.3 1384.41C1338.98 1384.89 1346.18 1388.25 1351.95 1393.06C1359.15 1401.22 1363.47 1412.27 1362.99 1423.32C1362.03 1431.01 1360.59 1438.21 1359.15 1445.42C1343.3 1483.36 1316.89 1516.03 1283.28 1539.57C1252.07 1560.7 1214.62 1572.23 1176.69 1571.75C1080.65 1571.75 1014.39 1553.01 977.417 1515.07C958.21 1494.41 943.805 1469.91 934.202 1443.01C924.599 1416.59 920.757 1388.25 922.198 1359.91V916.068H697V833.447H924.119V645.149L872.261 593.271V551H1022.55L1079.21 580.301V833.447L1664.05 831.526L1722.15 890.129L1363.47 1250.39C1385.08 1241.75 1408.13 1235.98 1431.17 1234.06C1477.27 1235.98 1521.93 1248.95 1562.26 1271.53C1608.84 1293.62 1647.73 1328.69 1675.1 1372.4C1699.59 1409.39 1716.87 1450.7 1726 1493.93C1733.68 1528.04 1737.52 1563.1 1738 1598.17C1738 1664.94 1723.11 1730.75 1693.82 1790.79C1665.98 1848.91 1618.92 1895.99 1560.82 1923.85C1501.76 1954.11 1435.98 1969 1369.71 1969Z" fill="white"/>
</svg>
