<svg width="2500" height="2500" viewBox="0 0 2500 2500" fill="none" xmlns="http://www.w3.org/2000/svg">
<path d="M1250 2500C1940.62 2500 2500 1940.22 2500 1250C2500 559.775 1940.62 0 1250 0C559.385 0 0 559.775 0 1250C0 1940.22 559.865 2500 1250 2500Z" fill="#FF060A"/>
<path d="M1982.01 1022.51C1910.11 958.513 1810.25 861.015 1729.36 792.016L1724.37 789.016C1716.38 783.016 1707.39 778.016 1697.9 774.516C1502.17 739.516 591.432 576.018 573.956 578.018C568.963 578.518 563.97 580.518 559.975 583.018L555.481 586.518C549.989 592.018 545.495 598.518 542.999 606.018L542 609.018V625.518V628.018C644.359 902.014 1049.3 1799 1129.19 2010C1134.18 2024.5 1143.17 2051.5 1160.15 2053H1164.14C1173.13 2053 1212.07 2003.5 1212.07 2003.5C1212.07 2003.5 1907.61 1194.51 1978.01 1108.51C1987 1098.01 1994.99 1086.51 2001.98 1074.51C2003.98 1065.01 2002.98 1055.51 1999.49 1046.51C1995.99 1037.51 1989.5 1029.01 1982.01 1022.51ZM1389.83 1117.01L1686.42 881.014L1860.68 1035.01L1389.83 1117.01ZM1274.49 1101.51L763.694 699.517L1590.55 846.015L1274.49 1101.51ZM1320.42 1206.51L1843.2 1125.51L1245.53 1817L1320.42 1206.51ZM694.289 740.016L1232.05 1177.51L1154.15 1817.5L694.289 740.016Z" fill="white"/>
</svg>
