<?xml version="1.0" encoding="UTF-8"?>
<svg version="1.1" viewBox="0 0 2048 2048" width="600" height="600" xmlns="http://www.w3.org/2000/svg">
<path transform="translate(0)" d="m0 0h2048v2048h-2048z" fill="#fff"/>
<path transform="translate(654,203)" d="m0 0 1058 1v235h235v1176l-1 1h-234v70l-1 164-2 1h-1009l-37-1-9-1-1-5-104-1v-121l103-1 1-182h-104v-120l1-1h103l-1-182-103-1v-120h104l-1-182-103-1v-120l1-1h103v-182h-103l-1-1v-120l4-1h100v-182h-104v-121z"/>
<path transform="translate(1007,558)" d="m0 0h586l1 1v937l-1 1h-586l-1-1v-937z" fill="#fff"/>
<path transform="translate(394,1128)" d="m0 0h93v94l-3 1h-38l-52-1z"/>
<path transform="translate(394,521)" d="m0 0h93v94h-93z"/>
<path transform="translate(394,825)" d="m0 0h93v93l-1 1h-92z"/>
<path transform="translate(395,217)" d="m0 0h91l1 1v93h-93v-93z"/>
<path transform="translate(417,1735)" d="m0 0h40l30 1v93h-93v-93z"/>
<path transform="translate(394,1432)" d="m0 0h93v93h-93z"/>
<path transform="translate(261,1445)" d="m0 0h66l1 1v66l-1 1h-66z"/>
<path transform="translate(286,1141)" d="m0 0h30l12 1v66l-1 1h-66v-67z"/>
<path transform="translate(261,838)" d="m0 0h67v67h-67z"/>
<path transform="translate(261,535)" d="m0 0h67v66h-67z"/>
<path transform="translate(261,231)" d="m0 0h66l1 1v65l-4 1-63-1z"/>
<path transform="translate(261,1749)" d="m0 0h66l1 1v65h-67z"/>
<path transform="translate(141,547)" d="m0 0h42l1 2v39l-1 1h-42z"/>
<path transform="translate(142,1154)" d="m0 0h41l1 3-1 39h-41l-1-1v-40z"/>
<path transform="translate(142,850)" d="m0 0h35l7 1-1 41h-42v-41z"/>
<path transform="translate(141,1458)" d="m0 0h42l1 3v38l-1 1-42-1z"/>
<path transform="translate(141,1762)" d="m0 0h42l1 3v38l-2 1-41-1z"/>
<path transform="translate(141,244)" d="m0 0h42l1 3v38h-43z"/>
</svg>
