<?xml version="1.0" encoding="UTF-8"?>
<svg version="1.1" viewBox="0 0 1080 1080" width="270" height="270" xmlns="http://www.w3.org/2000/svg">
<path transform="translate(193,61)" d="m0 0h680l2 1v137h136l1 1v688l-3 1h-134v136l-4 1h-617l-2-3-60-2-1-10v-59l1-2 60-1v-100l1-5h-53l-8-1-1-70 1-1h61l-1-9v-92l1-5-61-1-1-10v-59l1-1h61l-1-3v-99l1-5h-52l-9-1-1-68 1-2h61l-1-9v-94l1-4-61-1-1-10v-59l1-1h61l-1-9v-94l1-4h-52l-9-1-1-67zm268 208-1 149v268l1 133h343l1-2v-547l-1-1z" fill="#FEFEFE"/>
<path transform="translate(101,780)" d="m0 0h55l1 1v54l-2 1h-50l-5-1v-54z" fill="#FEFEFE"/>
<path transform="translate(101,602)" d="m0 0h55l1 1v54l-3 1-53-1-1-1v-53z" fill="#FEFEFE"/>
<path transform="translate(101,958)" d="m0 0h55l1 1v53l-3 2-53-1-1-1v-53z" fill="#FEFEFE"/>
<path transform="translate(101,425)" d="m0 0h55l1 1v53l-2 1h-50l-5-1v-52z" fill="#FEFEFE"/>
<path transform="translate(101,69)" d="m0 0h55l1 1v53l-2 1h-50l-5-1v-52z" fill="#FEFEFE"/>
<path transform="translate(101,247)" d="m0 0h55l1 1v53l-3 1-53-1-1-1v-52z" fill="#FEFEFE"/>
<path transform="translate(24,788)" d="m0 0h38l1 1v38l-3 1h-35l-2-1v-20z" fill="#FEFEFE"/>
<path transform="translate(24,432)" d="m0 0h38l1 1v38l-3 1h-35l-2-1v-20z" fill="#FEFEFE"/>
<path transform="translate(24,610)" d="m0 0h38l1 1v38l-2 1h-36l-2-7z" fill="#FEFEFE"/>
<path transform="translate(24,966)" d="m0 0h38l1 1v38l-2 1h-36l-1-1-1-9z" fill="#FEFEFE"/>
<path transform="translate(24,77)" d="m0 0h38l1 1v37l-3 1h-35l-2-1v-16z" fill="#FEFEFE"/>
<path transform="translate(24,255)" d="m0 0h38l1 1v37l-1 1h-38l-1-11z" fill="#FEFEFE"/>
</svg>
